# xmcd CD database file
#
# Track frame offsets:
#	150
#	35622
#	61922
#	95540
#	113750
#	139055
#	175092
#	196552
#	224552
#
# Disc length: 3421 seconds
#
# Revision: 2
# Processed by: cddbd v1.5.2PL0 Copyright (c) Steve Scherf et al.
# Submitted via: CDex 1.51
#
DISCID=7a0d5b09
DTITLE=Dado Moroni, Frits Landesbergen, Jeroen de Rijk, Theo de Jong - 4 of a kind
DYEAR=2000
DGENRE=Jazz
TTITLE0=Dado Moroni - Nose Off
TTITLE1=Fats Waller - What will i do in the morning
TTITLE2=Frits Landesbergen - Back to Bill
TTITLE3=Dizzy Gillespie - Woody'n you
TTITLE4=Jeroen de Rijk, Theo de Jong - Rich and young
TTITLE5=Chano Pozo, Fuller, Walter, Gilbert - Tin tin deo
TTITLE6=Cook, Greenaway, Instone - Here is that rainy day
TTITLE7=Ellington, Strayhorn - Isfahan
TTITLE8=Dado Moroni - Cattin'
EXTD=YEAR: 2000
EXTT0=
EXTT1=
EXTT2=
EXTT3=
EXTT4=
EXTT5=
EXTT6=
EXTT7=
EXTT8=
PLAYORDER=
